<svg width="148" height="155" viewBox="0 0 148 155" fill="none" xmlns="http://www.w3.org/2000/svg">
<mask id="path-1-inside-1_9_253" fill="white">
<path d="M43.2518 31.1172C47.3939 23.9428 56.5678 21.4847 63.7422 25.6268L84.693 37.7228C85.0543 37.9314 85.5162 37.8076 85.7248 37.4463V37.4463C85.8043 37.3086 85.8384 37.1493 85.822 36.9911L85.6447 35.2728C85.6108 34.944 85.6037 34.6129 85.6235 34.283L85.6695 33.5167C85.7082 32.872 85.8173 32.2334 85.995 31.6124V31.6124C86.1941 30.9165 86.4777 30.2477 86.8396 29.6208L87.2947 28.8326L87.7498 28.0443C88.1117 27.4175 88.5491 26.8374 89.0522 26.3171V26.3171C89.5012 25.8527 89.9997 25.4389 90.5387 25.0831L90.7983 24.9117C91.3277 24.5621 91.8847 24.2562 92.4638 23.9971L93.1604 23.6854C93.6172 23.4809 94.092 23.3191 94.5787 23.202V23.202C95.0313 23.0931 95.4946 23.0231 95.9592 22.9932V22.9932C96.686 22.9463 97.4194 22.9963 98.133 23.1423L98.6069 23.2393L100.589 23.8063L102.274 24.4378C103.048 24.7276 103.797 25.0809 104.512 25.494L104.96 25.7526C105.675 26.1657 106.356 26.6372 106.994 27.1623L108.383 28.3063L109.865 29.7393L110.227 30.1469C110.683 30.6615 111.069 31.2348 111.374 31.8514V31.8514C111.6 32.3083 111.78 32.7863 111.912 33.2786L111.926 33.3336C112.028 33.7136 112.103 34.1004 112.15 34.491L112.258 35.3852C112.338 36.0514 112.358 36.7233 112.318 37.393L112.303 37.6485C112.264 38.2932 112.155 38.9318 111.977 39.5528V39.5528C111.778 40.2486 111.494 40.9175 111.133 41.5443L110.677 42.3326L110.222 43.1208C109.86 43.7477 109.423 44.3278 108.92 44.8481V44.8481C108.471 45.3124 107.972 45.7262 107.433 46.0821L106.823 46.4855C106.527 46.6806 106.215 46.8487 105.889 46.9878L104.309 47.6626C104.16 47.7263 104.035 47.8368 103.954 47.9773V47.9773C103.747 48.336 103.87 48.7947 104.229 49.0018L124.364 60.6268C131.538 64.7689 133.996 73.9428 129.854 81.1172L94.8543 141.739C90.7122 148.913 81.5383 151.371 74.3639 147.229L61.1816 139.619L52.0773 134.362L50.9356 133.703C50.5367 133.473 50.4001 132.963 50.6303 132.564V132.564L51.1654 131.822C51.3947 131.504 51.6799 131.23 52.007 131.014L52.089 130.96C52.3249 130.804 52.5844 130.688 52.8575 130.614V130.614C53.0375 130.566 53.2118 130.499 53.3776 130.414L54.4519 129.863L55.2423 129.388C55.5308 129.215 55.7933 129.001 56.022 128.754V128.754C56.1403 128.627 56.2492 128.49 56.3476 128.346L56.9356 127.487L57.5222 126.471L57.7999 125.89C57.9825 125.508 58.1185 125.105 58.2049 124.691V124.691C58.2792 124.335 58.3165 123.972 58.3162 123.609L58.3158 122.856L58.1907 121.773L58.0336 121.061C57.9683 120.765 57.8713 120.477 57.7442 120.201V120.201C57.5817 119.849 57.3714 119.522 57.1193 119.227L57.1119 119.218C56.9796 119.064 56.8365 118.919 56.6836 118.784L56.1471 118.313L55.3811 117.64L54.0031 116.527L52.525 115.587L51.405 115.027L50.285 114.466L48.8359 113.976L47.8199 113.736L47.2869 113.659L47.1796 113.636C46.826 113.559 46.4622 113.541 46.1027 113.582V113.582C45.9087 113.604 45.7169 113.644 45.5298 113.7L44.6591 113.961L43.6803 114.406L42.9469 114.846C42.7005 114.994 42.4684 115.164 42.2535 115.354V115.354C41.8798 115.686 41.562 116.075 41.3123 116.508L41.0504 116.961L40.4393 118.02L39.9226 119.165L39.9151 119.185C39.7429 119.644 39.6308 120.124 39.5815 120.612V120.612C39.5392 121.03 39.5433 121.451 39.5935 121.868L39.6791 122.578C39.6962 122.72 39.7235 122.861 39.7606 123L39.77 123.035C39.848 123.326 39.8786 123.628 39.8606 123.929V123.929C39.8345 124.364 39.7074 124.787 39.4896 125.165L39.0709 125.89V125.89C38.8406 126.289 38.3305 126.425 37.9316 126.195L35.009 124.508L13.7422 112.229C6.56777 108.087 4.10963 98.9134 8.25177 91.739L21.8713 68.1492C22.0712 67.803 22.5046 67.6699 22.8644 67.8442V67.8442C22.8993 67.8611 22.9328 67.8806 22.9646 67.9026L23.3079 68.1392C23.5967 68.3382 23.8597 68.5723 24.0908 68.8361V68.8361V68.8361C24.3459 69.1524 24.5696 69.4928 24.7585 69.8526L25.0052 70.3224L25.228 70.9014L25.4659 71.4544L25.6706 71.8498L25.8954 72.2105L26.0699 72.4718C26.2628 72.7606 26.4821 73.0309 26.7249 73.2792V73.2792C26.9651 73.5248 27.2273 73.7479 27.5082 73.9456L27.907 74.2263L28.5565 74.6013L29.206 74.9763V74.9763C29.6551 75.1972 30.1195 75.3855 30.5956 75.5398L30.61 75.5445L31.1863 75.6463L31.7827 75.7134L32.8321 75.6958L33.4651 75.5994L34.0981 75.5029L34.4578 75.4266C34.6563 75.3844 34.8507 75.3248 35.0386 75.2484L35.0516 75.2431C35.2064 75.1801 35.3562 75.1053 35.4996 75.0194V75.0194C35.6501 74.9291 35.7931 74.8269 35.9271 74.7137L36.3346 74.3693L36.8828 73.8198L37.582 73.0687L38.2552 72.3027L39.3207 70.8972L40.1784 69.3716L41.1512 67.0466L41.5721 65.5575L41.7739 64.808L41.8468 64.3023C41.875 64.1069 41.8846 63.9092 41.8756 63.712V63.712L41.862 63.4155L41.7396 62.7675L41.6221 62.411V62.411C41.5439 62.1737 41.446 61.9434 41.3294 61.7225L40.8382 60.7922C40.698 60.5267 40.5391 60.2715 40.3627 60.0286L40.3421 60.0003C40.0617 59.6142 39.7365 59.2627 39.3733 58.9533V58.9533L38.716 58.5045L37.417 57.7545L36.7374 57.4315L36.65 57.3981C36.2367 57.2402 35.8065 57.1304 35.368 57.0711V57.0711C35.0943 57.0341 34.8183 57.0168 34.5421 57.0194L33.7959 57.0264L32.8713 57.1278L32.4216 57.1568L31.9718 57.1858L31.5321 57.1975L31.1223 57.1572L30.7896 57.0849C30.4989 57.0218 30.2136 56.9355 29.9366 56.8269V56.8269L29.5472 56.6173L29.1655 56.3969V56.3969C28.9585 56.2603 28.8937 55.9861 29.0177 55.7713L43.2518 31.1172Z"/>
</mask>
<path d="M43.2518 31.1172C47.3939 23.9428 56.5678 21.4847 63.7422 25.6268L84.693 37.7228C85.0543 37.9314 85.5162 37.8076 85.7248 37.4463V37.4463C85.8043 37.3086 85.8384 37.1493 85.822 36.9911L85.6447 35.2728C85.6108 34.944 85.6037 34.6129 85.6235 34.283L85.6695 33.5167C85.7082 32.872 85.8173 32.2334 85.995 31.6124V31.6124C86.1941 30.9165 86.4777 30.2477 86.8396 29.6208L87.2947 28.8326L87.7498 28.0443C88.1117 27.4175 88.5491 26.8374 89.0522 26.3171V26.3171C89.5012 25.8527 89.9997 25.4389 90.5387 25.0831L90.7983 24.9117C91.3277 24.5621 91.8847 24.2562 92.4638 23.9971L93.1604 23.6854C93.6172 23.4809 94.092 23.3191 94.5787 23.202V23.202C95.0313 23.0931 95.4946 23.0231 95.9592 22.9932V22.9932C96.686 22.9463 97.4194 22.9963 98.133 23.1423L98.6069 23.2393L100.589 23.8063L102.274 24.4378C103.048 24.7276 103.797 25.0809 104.512 25.494L104.96 25.7526C105.675 26.1657 106.356 26.6372 106.994 27.1623L108.383 28.3063L109.865 29.7393L110.227 30.1469C110.683 30.6615 111.069 31.2348 111.374 31.8514V31.8514C111.6 32.3083 111.78 32.7863 111.912 33.2786L111.926 33.3336C112.028 33.7136 112.103 34.1004 112.15 34.491L112.258 35.3852C112.338 36.0514 112.358 36.7233 112.318 37.393L112.303 37.6485C112.264 38.2932 112.155 38.9318 111.977 39.5528V39.5528C111.778 40.2486 111.494 40.9175 111.133 41.5443L110.677 42.3326L110.222 43.1208C109.86 43.7477 109.423 44.3278 108.92 44.8481V44.8481C108.471 45.3124 107.972 45.7262 107.433 46.0821L106.823 46.4855C106.527 46.6806 106.215 46.8487 105.889 46.9878L104.309 47.6626C104.16 47.7263 104.035 47.8368 103.954 47.9773V47.9773C103.747 48.336 103.87 48.7947 104.229 49.0018L124.364 60.6268C131.538 64.7689 133.996 73.9428 129.854 81.1172L94.8543 141.739C90.7122 148.913 81.5383 151.371 74.3639 147.229L61.1816 139.619L52.0773 134.362L50.9356 133.703C50.5367 133.473 50.4001 132.963 50.6303 132.564V132.564L51.1654 131.822C51.3947 131.504 51.6799 131.23 52.007 131.014L52.089 130.96C52.3249 130.804 52.5844 130.688 52.8575 130.614V130.614C53.0375 130.566 53.2118 130.499 53.3776 130.414L54.4519 129.863L55.2423 129.388C55.5308 129.215 55.7933 129.001 56.022 128.754V128.754C56.1403 128.627 56.2492 128.49 56.3476 128.346L56.9356 127.487L57.5222 126.471L57.7999 125.89C57.9825 125.508 58.1185 125.105 58.2049 124.691V124.691C58.2792 124.335 58.3165 123.972 58.3162 123.609L58.3158 122.856L58.1907 121.773L58.0336 121.061C57.9683 120.765 57.8713 120.477 57.7442 120.201V120.201C57.5817 119.849 57.3714 119.522 57.1193 119.227L57.1119 119.218C56.9796 119.064 56.8365 118.919 56.6836 118.784L56.1471 118.313L55.3811 117.64L54.0031 116.527L52.525 115.587L51.405 115.027L50.285 114.466L48.8359 113.976L47.8199 113.736L47.2869 113.659L47.1796 113.636C46.826 113.559 46.4622 113.541 46.1027 113.582V113.582C45.9087 113.604 45.7169 113.644 45.5298 113.7L44.6591 113.961L43.6803 114.406L42.9469 114.846C42.7005 114.994 42.4684 115.164 42.2535 115.354V115.354C41.8798 115.686 41.562 116.075 41.3123 116.508L41.0504 116.961L40.4393 118.02L39.9226 119.165L39.9151 119.185C39.7429 119.644 39.6308 120.124 39.5815 120.612V120.612C39.5392 121.03 39.5433 121.451 39.5935 121.868L39.6791 122.578C39.6962 122.72 39.7235 122.861 39.7606 123L39.77 123.035C39.848 123.326 39.8786 123.628 39.8606 123.929V123.929C39.8345 124.364 39.7074 124.787 39.4896 125.165L39.0709 125.89V125.89C38.8406 126.289 38.3305 126.425 37.9316 126.195L35.009 124.508L13.7422 112.229C6.56777 108.087 4.10963 98.9134 8.25177 91.739L21.8713 68.1492C22.0712 67.803 22.5046 67.6699 22.8644 67.8442V67.8442C22.8993 67.8611 22.9328 67.8806 22.9646 67.9026L23.3079 68.1392C23.5967 68.3382 23.8597 68.5723 24.0908 68.8361V68.8361V68.8361C24.3459 69.1524 24.5696 69.4928 24.7585 69.8526L25.0052 70.3224L25.228 70.9014L25.4659 71.4544L25.6706 71.8498L25.8954 72.2105L26.0699 72.4718C26.2628 72.7606 26.4821 73.0309 26.7249 73.2792V73.2792C26.9651 73.5248 27.2273 73.7479 27.5082 73.9456L27.907 74.2263L28.5565 74.6013L29.206 74.9763V74.9763C29.6551 75.1972 30.1195 75.3855 30.5956 75.5398L30.61 75.5445L31.1863 75.6463L31.7827 75.7134L32.8321 75.6958L33.4651 75.5994L34.0981 75.5029L34.4578 75.4266C34.6563 75.3844 34.8507 75.3248 35.0386 75.2484L35.0516 75.2431C35.2064 75.1801 35.3562 75.1053 35.4996 75.0194V75.0194C35.6501 74.9291 35.7931 74.8269 35.9271 74.7137L36.3346 74.3693L36.8828 73.8198L37.582 73.0687L38.2552 72.3027L39.3207 70.8972L40.1784 69.3716L41.1512 67.0466L41.5721 65.5575L41.7739 64.808L41.8468 64.3023C41.875 64.1069 41.8846 63.9092 41.8756 63.712V63.712L41.862 63.4155L41.7396 62.7675L41.6221 62.411V62.411C41.5439 62.1737 41.446 61.9434 41.3294 61.7225L40.8382 60.7922C40.698 60.5267 40.5391 60.2715 40.3627 60.0286L40.3421 60.0003C40.0617 59.6142 39.7365 59.2627 39.3733 58.9533V58.9533L38.716 58.5045L37.417 57.7545L36.7374 57.4315L36.65 57.3981C36.2367 57.2402 35.8065 57.1304 35.368 57.0711V57.0711C35.0943 57.0341 34.8183 57.0168 34.5421 57.0194L33.7959 57.0264L32.8713 57.1278L32.4216 57.1568L31.9718 57.1858L31.5321 57.1975L31.1223 57.1572L30.7896 57.0849C30.4989 57.0218 30.2136 56.9355 29.9366 56.8269V56.8269L29.5472 56.6173L29.1655 56.3969V56.3969C28.9585 56.2603 28.8937 55.9861 29.0177 55.7713L43.2518 31.1172Z" fill="white" stroke="#154EC1" stroke-width="8" mask="url(#path-1-inside-1_9_253)"/>
<path d="M41.0383 96.1283L56.9655 51.1176L66.3809 56.5536L58.2069 77.1915C57.2323 79.4556 56.2665 81.7524 55.3095 84.082C54.3764 86.37 53.4106 88.6668 52.4121 90.9724L52.6615 91.1164C54.3252 89.1948 55.9561 87.282 57.5542 85.378C59.2179 83.4564 60.8696 81.5556 62.5093 79.6755L77.854 63.1776L85.6483 67.6776L79.033 89.2155C78.2727 91.4924 77.4556 93.8197 76.5818 96.1973C75.7495 98.5989 74.9051 101.021 74.0488 103.464L74.2983 103.608C75.8612 101.573 77.3794 99.5677 78.8529 97.5916C80.3918 95.598 81.9068 93.646 83.3978 91.7355L97.1837 74.3376L105.976 79.4136L75.2706 115.892L63.7351 109.232L70.4005 88.4716C70.9799 86.7 71.5802 84.9403 72.2012 83.1927C72.8878 81.4275 73.5591 79.7367 74.2153 78.1202L73.9659 77.9762C72.8524 79.3287 71.6822 80.7315 70.4553 82.1847C69.2938 83.6203 68.0909 85.032 66.8463 86.4196L52.3867 102.68L41.0383 96.1283Z" fill="#333333"/>
</svg>
