<svg width="148" height="156" viewBox="0 0 148 156" fill="none" xmlns="http://www.w3.org/2000/svg">
<mask id="path-1-inside-1_9_241" fill="white">
<path d="M43.3082 31.6499C47.4503 24.4755 56.6242 22.0174 63.7986 26.1595L84.7494 38.2555C85.1107 38.4641 85.5726 38.3403 85.7812 37.979V37.979C85.8607 37.8413 85.8948 37.682 85.8784 37.5238L85.7011 35.8055C85.6672 35.4767 85.6601 35.1456 85.6799 34.8157L85.7259 34.0494C85.7646 33.4047 85.8737 32.7661 86.0514 32.1451V32.1451C86.2504 31.4492 86.5341 30.7804 86.896 30.1536L87.3511 29.3653L87.8062 28.577C88.1681 27.9502 88.6055 27.3701 89.1086 26.8498V26.8498C89.5576 26.3855 90.0561 25.9717 90.5951 25.6158L90.8547 25.4444C91.3841 25.0948 91.9411 24.7889 92.5202 24.5298L93.2168 24.2181C93.6736 24.0136 94.1484 23.8518 94.6351 23.7347V23.7347C95.0877 23.6258 95.551 23.5559 96.0156 23.5259V23.5259C96.7424 23.479 97.4758 23.529 98.1894 23.6751L98.6633 23.772L100.645 24.339L102.331 24.9705C103.105 25.2603 103.853 25.6136 104.569 26.0267L105.016 26.2853C105.732 26.6984 106.412 27.1699 107.05 27.695L108.44 28.839L109.922 30.272L110.283 30.6796C110.739 31.1943 111.125 31.7675 111.43 32.3841V32.3841C111.656 32.841 111.836 33.319 111.968 33.8113L111.983 33.8663C112.085 34.2464 112.159 34.6331 112.206 35.0238L112.314 35.918C112.394 36.5841 112.415 37.256 112.374 37.9258L112.359 38.1812C112.32 38.8259 112.211 39.4645 112.034 40.0855V40.0855C111.834 40.7814 111.551 41.4502 111.189 42.077L110.734 42.8653L110.279 43.6536C109.917 44.2804 109.479 44.8605 108.976 45.3808V45.3808C108.527 45.8451 108.029 46.2589 107.49 46.6148L106.879 47.0182C106.583 47.2133 106.271 47.3814 105.945 47.5205L104.366 48.1953C104.216 48.259 104.092 48.3695 104.011 48.51V48.51C103.804 48.8687 103.927 49.3274 104.285 49.5345L124.42 61.1595C131.595 65.3016 134.053 74.4755 129.911 81.6499L94.9107 142.272C90.7686 149.446 81.5947 151.904 74.4203 147.762L61.238 140.151L52.1337 134.895L50.992 134.236C50.5931 134.005 50.4564 133.495 50.6867 133.096V133.096L51.2218 132.355C51.4511 132.037 51.7363 131.763 52.0634 131.547L52.1454 131.493C52.3813 131.337 52.6408 131.22 52.9139 131.147V131.147C53.0939 131.099 53.2682 131.032 53.434 130.947L54.5082 130.395L55.2987 129.921C55.5872 129.747 55.8497 129.534 56.0784 129.287V129.287C56.1967 129.159 56.3056 129.023 56.404 128.879L56.992 128.02L57.5785 127.004L57.8563 126.423C58.0389 126.041 58.1749 125.638 58.2613 125.223V125.223C58.3356 124.867 58.3728 124.505 58.3726 124.141L58.3722 123.389L58.2471 122.306L58.09 121.594C58.0247 121.298 57.9277 121.009 57.8006 120.734V120.734C57.6381 120.382 57.4278 120.054 57.1757 119.76L57.1683 119.751C57.036 119.596 56.8929 119.451 56.74 119.317L56.2035 118.846L55.4375 118.172L54.0595 117.059L52.5814 116.119L51.4614 115.559L50.3414 114.999L48.8923 114.509L47.8763 114.269L47.3433 114.192L47.236 114.169C46.8824 114.092 46.5186 114.074 46.1591 114.115V114.115C45.9651 114.137 45.7733 114.176 45.5862 114.233L44.7155 114.494L43.7367 114.939L43.0033 115.379C42.7569 115.526 42.5248 115.696 42.3098 115.887V115.887C41.9362 116.218 41.6184 116.608 41.3687 117.04L41.1068 117.494L40.4957 118.552L39.979 119.697L39.9715 119.717C39.7993 120.177 39.6872 120.657 39.6379 121.145V121.145C39.5956 121.562 39.5997 121.984 39.6499 122.4L39.7355 123.111C39.7526 123.253 39.7799 123.394 39.817 123.533L39.8264 123.568C39.9044 123.859 39.935 124.161 39.917 124.462V124.462C39.8908 124.897 39.7638 125.32 39.546 125.697L39.1273 126.423V126.423C38.897 126.821 38.3869 126.958 37.988 126.728L35.0654 125.04L13.7986 112.762C6.62417 108.62 4.16603 99.4461 8.30817 92.2717L21.9277 68.682C22.1276 68.3357 22.561 68.2026 22.9208 68.377V68.377C22.9557 68.3938 22.9892 68.4133 23.021 68.4353L23.3643 68.6719C23.6531 68.8709 23.9161 69.105 24.1472 69.3688V69.3688V69.3688C24.4023 69.6851 24.626 70.0255 24.8149 70.3853L25.0615 70.8551L25.2844 71.4341L25.5223 71.9871L25.727 72.3825L25.9518 72.7432L26.1263 73.0045C26.3192 73.2933 26.5385 73.5636 26.7813 73.8119V73.8119C27.0215 74.0575 27.2837 74.2806 27.5646 74.4783L27.9634 74.759L28.6129 75.134L29.2624 75.509V75.509C29.7115 75.7299 30.1759 75.9182 30.652 76.0725L30.6664 76.0772L31.2427 76.179L31.8391 76.2461L32.8885 76.2285L33.5215 76.1321L34.1545 76.0357L34.5142 75.9593C34.7127 75.9171 34.907 75.8575 35.095 75.7811L35.108 75.7758C35.2628 75.7129 35.4126 75.6381 35.556 75.5521V75.5521C35.7065 75.4619 35.8495 75.3596 35.9835 75.2464L36.391 74.902L36.9392 74.3525L37.6383 73.6015L38.3116 72.8354L39.3771 71.4299L40.2348 69.9043L41.2076 67.5793L41.6285 66.0902L41.8303 65.3407L41.9032 64.835C41.9314 64.6396 41.941 64.4419 41.932 64.2447V64.2447L41.9184 63.9482L41.796 63.3002L41.6785 62.9437V62.9437C41.6003 62.7064 41.5024 62.4761 41.3858 62.2552L40.8946 61.3249C40.7544 61.0594 40.5955 60.8042 40.4191 60.5613L40.3985 60.533C40.1181 60.1469 39.7929 59.7954 39.4296 59.486V59.486L38.7724 59.0372L37.4734 58.2872L36.7938 57.9642L36.7064 57.9308C36.2931 57.7729 35.8629 57.6632 35.4244 57.6038V57.6038C35.1507 57.5668 34.8747 57.5495 34.5985 57.5521L33.8523 57.5592L32.9277 57.6605L32.478 57.6895L32.0282 57.7185L31.5885 57.7302L31.1787 57.6899L30.846 57.6176C30.5553 57.5545 30.27 57.4682 29.993 57.3596V57.3596L29.6036 57.15L29.2219 56.9296V56.9296C29.0149 56.793 28.9501 56.5188 29.0741 56.304L43.3082 31.6499Z"/>
</mask>
<path d="M43.3082 31.6499C47.4503 24.4755 56.6242 22.0174 63.7986 26.1595L84.7494 38.2555C85.1107 38.4641 85.5726 38.3403 85.7812 37.979V37.979C85.8607 37.8413 85.8948 37.682 85.8784 37.5238L85.7011 35.8055C85.6672 35.4767 85.6601 35.1456 85.6799 34.8157L85.7259 34.0494C85.7646 33.4047 85.8737 32.7661 86.0514 32.1451V32.1451C86.2504 31.4492 86.5341 30.7804 86.896 30.1536L87.3511 29.3653L87.8062 28.577C88.1681 27.9502 88.6055 27.3701 89.1086 26.8498V26.8498C89.5576 26.3855 90.0561 25.9717 90.5951 25.6158L90.8547 25.4444C91.3841 25.0948 91.9411 24.7889 92.5202 24.5298L93.2168 24.2181C93.6736 24.0136 94.1484 23.8518 94.6351 23.7347V23.7347C95.0877 23.6258 95.551 23.5559 96.0156 23.5259V23.5259C96.7424 23.479 97.4758 23.529 98.1894 23.6751L98.6633 23.772L100.645 24.339L102.331 24.9705C103.105 25.2603 103.853 25.6136 104.569 26.0267L105.016 26.2853C105.732 26.6984 106.412 27.1699 107.05 27.695L108.44 28.839L109.922 30.272L110.283 30.6796C110.739 31.1943 111.125 31.7675 111.43 32.3841V32.3841C111.656 32.841 111.836 33.319 111.968 33.8113L111.983 33.8663C112.085 34.2464 112.159 34.6331 112.206 35.0238L112.314 35.918C112.394 36.5841 112.415 37.256 112.374 37.9258L112.359 38.1812C112.32 38.8259 112.211 39.4645 112.034 40.0855V40.0855C111.834 40.7814 111.551 41.4502 111.189 42.077L110.734 42.8653L110.279 43.6536C109.917 44.2804 109.479 44.8605 108.976 45.3808V45.3808C108.527 45.8451 108.029 46.2589 107.49 46.6148L106.879 47.0182C106.583 47.2133 106.271 47.3814 105.945 47.5205L104.366 48.1953C104.216 48.259 104.092 48.3695 104.011 48.51V48.51C103.804 48.8687 103.927 49.3274 104.285 49.5345L124.42 61.1595C131.595 65.3016 134.053 74.4755 129.911 81.6499L94.9107 142.272C90.7686 149.446 81.5947 151.904 74.4203 147.762L61.238 140.151L52.1337 134.895L50.992 134.236C50.5931 134.005 50.4564 133.495 50.6867 133.096V133.096L51.2218 132.355C51.4511 132.037 51.7363 131.763 52.0634 131.547L52.1454 131.493C52.3813 131.337 52.6408 131.22 52.9139 131.147V131.147C53.0939 131.099 53.2682 131.032 53.434 130.947L54.5082 130.395L55.2987 129.921C55.5872 129.747 55.8497 129.534 56.0784 129.287V129.287C56.1967 129.159 56.3056 129.023 56.404 128.879L56.992 128.02L57.5785 127.004L57.8563 126.423C58.0389 126.041 58.1749 125.638 58.2613 125.223V125.223C58.3356 124.867 58.3728 124.505 58.3726 124.141L58.3722 123.389L58.2471 122.306L58.09 121.594C58.0247 121.298 57.9277 121.009 57.8006 120.734V120.734C57.6381 120.382 57.4278 120.054 57.1757 119.76L57.1683 119.751C57.036 119.596 56.8929 119.451 56.74 119.317L56.2035 118.846L55.4375 118.172L54.0595 117.059L52.5814 116.119L51.4614 115.559L50.3414 114.999L48.8923 114.509L47.8763 114.269L47.3433 114.192L47.236 114.169C46.8824 114.092 46.5186 114.074 46.1591 114.115V114.115C45.9651 114.137 45.7733 114.176 45.5862 114.233L44.7155 114.494L43.7367 114.939L43.0033 115.379C42.7569 115.526 42.5248 115.696 42.3098 115.887V115.887C41.9362 116.218 41.6184 116.608 41.3687 117.04L41.1068 117.494L40.4957 118.552L39.979 119.697L39.9715 119.717C39.7993 120.177 39.6872 120.657 39.6379 121.145V121.145C39.5956 121.562 39.5997 121.984 39.6499 122.4L39.7355 123.111C39.7526 123.253 39.7799 123.394 39.817 123.533L39.8264 123.568C39.9044 123.859 39.935 124.161 39.917 124.462V124.462C39.8908 124.897 39.7638 125.32 39.546 125.697L39.1273 126.423V126.423C38.897 126.821 38.3869 126.958 37.988 126.728L35.0654 125.04L13.7986 112.762C6.62417 108.62 4.16603 99.4461 8.30817 92.2717L21.9277 68.682C22.1276 68.3357 22.561 68.2026 22.9208 68.377V68.377C22.9557 68.3938 22.9892 68.4133 23.021 68.4353L23.3643 68.6719C23.6531 68.8709 23.9161 69.105 24.1472 69.3688V69.3688V69.3688C24.4023 69.6851 24.626 70.0255 24.8149 70.3853L25.0615 70.8551L25.2844 71.4341L25.5223 71.9871L25.727 72.3825L25.9518 72.7432L26.1263 73.0045C26.3192 73.2933 26.5385 73.5636 26.7813 73.8119V73.8119C27.0215 74.0575 27.2837 74.2806 27.5646 74.4783L27.9634 74.759L28.6129 75.134L29.2624 75.509V75.509C29.7115 75.7299 30.1759 75.9182 30.652 76.0725L30.6664 76.0772L31.2427 76.179L31.8391 76.2461L32.8885 76.2285L33.5215 76.1321L34.1545 76.0357L34.5142 75.9593C34.7127 75.9171 34.907 75.8575 35.095 75.7811L35.108 75.7758C35.2628 75.7129 35.4126 75.6381 35.556 75.5521V75.5521C35.7065 75.4619 35.8495 75.3596 35.9835 75.2464L36.391 74.902L36.9392 74.3525L37.6383 73.6015L38.3116 72.8354L39.3771 71.4299L40.2348 69.9043L41.2076 67.5793L41.6285 66.0902L41.8303 65.3407L41.9032 64.835C41.9314 64.6396 41.941 64.4419 41.932 64.2447V64.2447L41.9184 63.9482L41.796 63.3002L41.6785 62.9437V62.9437C41.6003 62.7064 41.5024 62.4761 41.3858 62.2552L40.8946 61.3249C40.7544 61.0594 40.5955 60.8042 40.4191 60.5613L40.3985 60.533C40.1181 60.1469 39.7929 59.7954 39.4296 59.486V59.486L38.7724 59.0372L37.4734 58.2872L36.7938 57.9642L36.7064 57.9308C36.2931 57.7729 35.8629 57.6632 35.4244 57.6038V57.6038C35.1507 57.5668 34.8747 57.5495 34.5985 57.5521L33.8523 57.5592L32.9277 57.6605L32.478 57.6895L32.0282 57.7185L31.5885 57.7302L31.1787 57.6899L30.846 57.6176C30.5553 57.5545 30.27 57.4682 29.993 57.3596V57.3596L29.6036 57.15L29.2219 56.9296V56.9296C29.0149 56.793 28.9501 56.5188 29.0741 56.304L43.3082 31.6499Z" fill="#154EC1" stroke="white" stroke-width="8" mask="url(#path-1-inside-1_9_241)"/>
<path d="M41.0947 96.661L57.0219 51.6503L66.4373 57.0863L58.2633 77.7242C57.2887 79.9882 56.3229 82.285 55.3659 84.6146C54.4328 86.9027 53.467 89.1995 52.4685 91.5051L52.7179 91.6491C54.3816 89.7275 56.0125 87.8147 57.6106 85.9106C59.2743 83.989 60.926 82.0882 62.5657 80.2082L77.9104 63.7103L85.7047 68.2103L79.0894 89.7482C78.3291 92.0251 77.512 94.3523 76.6382 96.7299C75.8059 99.1315 74.9615 101.554 74.1052 103.997L74.3547 104.141C75.9176 102.106 77.4358 100.1 78.9093 98.1243C80.4482 96.1307 81.9632 94.1787 83.4542 92.2682L97.2401 74.8703L106.032 79.9463L75.327 116.425L63.7915 109.765L70.4569 89.0042C71.0363 87.2326 71.6365 85.473 72.2576 83.7254C72.9441 81.9602 73.6155 80.2693 74.2717 78.6528L74.0223 78.5088C72.9088 79.8613 71.7386 81.2642 70.5117 82.7174C69.3502 84.153 68.1473 85.5646 66.9027 86.9522L52.4431 103.213L41.0947 96.661Z" fill="white"/>
</svg>
